Coordinates
version=1
nRows=14
nColumns=36
inDegrees=yes

Units are S.I. units (second, meters, Newtons, ...)
If the header above contains a line with 'inDegrees', this indicates whether rotational values are in degrees (yes) or radians (no).

endheader
time	pelvis_tilt	pelvis_list	pelvis_rotation	pelvis_tx	pelvis_ty	pelvis_tz	hip_flexion_r	hip_adduction_r	hip_rotation_r	knee_angle_r	knee_angle_r_beta	ankle_angle_r	subtalar_angle_r	mtp_angle_r	hip_flexion_l	hip_adduction_l	hip_rotation_l	knee_angle_l	knee_angle_l_beta	ankle_angle_l	subtalar_angle_l	mtp_angle_l	lumbar_extension	lumbar_bending	lumbar_rotation	arm_flex_r	arm_add_r	arm_rot_r	elbow_flex_r	pro_sup_r	arm_flex_l	arm_add_l	arm_rot_l	elbow_flex_l	pro_sup_l
     44.85000000	      2.67995469	     -5.46852505	     -3.16018208	      0.54590896	      1.03481177	      0.76875803	     13.07039213	      8.41200707	      3.27986122	     14.12680710	      0.24655930	     -0.00981100	     -8.80837485	     -7.49999987	      1.63224651	     -9.57491568	     -2.87681018	     49.30621134	      0.86055573	     -4.68936818	     -8.39066555	     -7.49999987	    -12.57329468	      6.80516086	      2.85878080	      3.42538439	    -16.18469885	      5.46413239	     25.58923691	     91.42356383	      8.85263700	    -11.64151323	     17.74259332	     18.45450040	     94.11422671
     44.86666670	      3.01910374	     -5.86783376	     -3.06961298	      0.54705984	      1.03422608	      0.77098094	     11.63795014	      9.03587664	      3.66877095	     14.02695638	      0.24481657	      0.83398110	     -9.24892834	     -7.49999987	      3.30136857	    -10.16185359	     -2.28048502	     53.05833999	      0.92604273	     -6.51490475	     -8.79963212	     -7.49999987	    -13.09748052	      7.37182744	      3.33793866	      3.87396980	    -16.49796890	      5.49893358	     25.73676905	     91.39104793	      8.49386556	    -11.13056970	     17.81253396	     18.12615562	     94.13251576
     44.88333330	      3.08879142	     -6.20572309	     -2.76911024	      0.54987606	      1.03304495	      0.77294226	     10.36447898	      9.56357333	      3.82589691	     13.56609470	      0.23677302	      1.36459493	     -9.70623885	     -7.49999987	      5.27973683	    -10.54018509	     -1.27737646	     56.65507816	      0.98881765	     -8.15547191	     -9.59274376	     -7.49999987	    -13.21440887	      7.92154505	      3.56038201	      4.15171978	    -16.82240546	      5.65384811	     26.24467329	     91.30755314	      8.12890388	    -10.67419221	     17.93500029	     17.51403523	     94.13888790
     44.90000000	      3.25924343	     -6.44617358	     -2.57836921	      0.55152515	      1.03224963	      0.77537423	      9.02852747	     10.00319975	      4.04835097	     13.15134681	      0.22953430	      2.07958804	     -9.97209557	     -7.49999987	      7.03597421	    -10.77478887	     -0.45012702	     59.97869929	      1.04682578	     -9.27419287	    -10.19330532	     -7.49999987	    -13.47688978	      8.29393761	      3.92268390	      4.43556634	    -17.12949259	      5.74185131	     26.63001099	     91.21067775	      7.76127979	    -10.32085960	     18.08701131	     17.20343230	     94.11504326
     44.91666670	      3.44278077	     -6.59281113	     -2.40467707	      0.55136361	      1.03247493	      0.77781791	      7.65847771	     10.33017081	      4.19376086	     12.69906403	      0.22164048	      2.79348509	    -10.15585105	     -7.49999987	      8.70564268	    -10.82191648	      0.35367656	     62.95242316	      1.09872706	     -9.90739500	    -10.83093035	     -7.49999987	    -13.69874297	      8.52881733	      4.26822421	      4.73086569	    -17.37070995	      5.82009541	     27.02836100	     91.13174637	      7.38577535	    -10.05389310	     18.27432938	     16.91708120	     94.11214796
     44.93333330	      3.58260364	     -6.59993733	     -2.26586771	      0.55062427	      1.03337283	      0.78003773	      6.32744263	     10.49597007	      4.29718495	     12.23107607	      0.21347255	      3.47240388	    -10.17268967	     -7.49999987	     10.35034016	    -10.66257077	      1.06186032	     65.46505719	      1.14258079	     -9.96863258	    -11.40581872	     -7.49999987	    -13.92172510	      8.61035606	      4.52818619	      5.00307532	    -17.53188934	      5.93258035	     27.54037616	     91.03335135	      7.07202259	     -9.86000971	     18.53096908	     16.62324352	     94.11478461
     44.95000000	      3.75333648	     -6.49027177	     -2.14334774	      0.54942151	      1.03395502	      0.78279936	      4.98017492	     10.52220397	      4.37053555	     11.80601602	      0.20605385	      4.18165204	     -9.98379384	     -7.49999987	     11.82168554	    -10.33966031	      1.63106757	     67.27350931	      1.17414424	     -9.43117711	    -11.69328661	     -7.49999987	    -14.20484436	      8.50530803	      4.79789785	      5.22519799	    -17.60717308	      6.05924237	     28.14363491	     90.89416184	      6.75355122	     -9.71706440	     18.86801118	     16.34380576	     94.11923936
     44.96666670	      3.81199351	     -6.17687443	     -2.12949258	      0.54569707	      1.03386080	      0.78688810	      3.84571315	     10.35598205	      4.67885992	     11.47426006	      0.20026362	      4.82530580	     -9.88803880	     -7.49999987	     13.19030540	     -9.86628173	      1.86640456	     68.25005222	      1.19118813	     -8.59620852	    -12.03784088	     -7.49999987	    -14.45019413	      8.09149891	      5.11791112	      5.51112691	    -17.54237226	      6.07887246	     28.45506591	     90.77086444	      6.48482134	     -9.65983363	     18.94895510	     16.41272467	     94.01208843
     44.98333330	      4.10815172	     -6.02623801	     -1.79023376	      0.54021086	      1.03364299	      0.79094839	      2.40688401	     10.31040069	      4.57445503	     10.90699426	      0.19036296	      5.44288958	     -9.40088138	     -7.49999987	     14.21184128	     -9.52716284	      2.33845956	     68.54796149	      1.19638762	     -6.72389447	    -11.66487531	     -7.49999987	    -14.87873896	      7.91260350	      5.07750780	      5.74039191	    -17.52806538	      6.11707230	     29.27213415	     90.51521257	      6.33035556	     -9.63820202	     19.25628131	     16.28707143	     93.91471652
     45.00000000	      4.23367526	     -5.71782748	     -1.72434052	      0.53673775	      1.03379836	      0.79482715	      1.29109684	     10.11562670	      4.71722427	     10.55860323	      0.18428239	      6.09635408	     -9.05680506	     -7.49999987	     15.15234864	     -9.09598396	      2.43723188	     68.17736713	      1.18991953	     -4.95827827	    -11.60635089	     -7.49999987	    -15.23090250	      7.44637905	      5.27954146	      6.02134068	    -17.45102904	      6.12081205	     30.03945426	     90.23386357	      6.22665947	     -9.67432858	     19.51487179	     16.30854197	     93.79761607
     45.01666670	      4.45528162	     -5.44588940	     -1.64097975	      0.53678928	      1.03384226	      0.79783867	      0.01439653	      9.93232409	      4.87767454	     10.15161745	      0.17717915	      6.69696654	     -8.69423325	     -7.49999987	     15.89300257	     -8.63712229	      2.58646328	     67.25942143	      1.17389836	     -3.19023560	    -11.81044219	     -7.49999987	    -15.69911095	      7.00384837	      5.45629043	      6.16974939	    -17.45241434	      6.05156312	     31.24957827	     87.67717778	      5.94820064	     -9.77920765	     19.46784521	     17.00056635	     91.35626160
     45.03333330	      4.31788874	     -5.19857867	     -1.75649651	      0.53686808	      1.03294761	      0.80094497	     -0.89120158	      9.75680170	      5.10952148	      9.86930370	      0.17225184	      7.41669067	     -8.07303565	     -7.49999987	     16.97440060	     -8.22074055	      2.55999216	     65.79103899	      1.14827025	     -0.95877303	    -11.60121345	     -7.49999987	    -15.51626196	      6.56786722	      5.66370759	      6.55708952	    -17.44075856	      6.53198629	     31.57479557	     86.52349652	      5.92071057	     -9.80810937	     20.40074410	     16.55744783	     90.52186350
     45.05000000	      4.32769319	     -4.95163660	     -1.85080919	      0.53407354	      1.03248942	      0.80453411	     -2.00160528	      9.56141592	      5.32459472	      9.53681360	      0.16644880	      7.99568843	     -7.58309902	     -7.49999987	     17.87173313	     -7.76438244	      2.48488426	     63.58855687	      1.10982968	      1.46971608	    -11.36282683	     -7.49999987	    -15.62514596	      6.08431933	      5.79243459	      6.88349575	    -17.46706613	      6.68710517	     32.34520627	     85.43984683	      5.79403056	    -10.03481659	     20.97199627	     16.83762907	     89.64447193
     45.06666670	      4.37446772	     -4.70502150	     -1.89420730	      0.53045701	      1.03324662	      0.80786198	     -3.08663858	      9.34029735	      5.27419938	      9.30073389	      0.16232843	      8.63734523	     -6.94542057	     -7.49999987	     18.58899190	     -7.36464389	      2.26943147	     60.59608350	      1.05760117	      3.79059939	    -11.03418935	     -7.49999987	    -15.82224741	      5.57999018	      5.71472092	      7.17584018	    -17.39635209	      6.56577770	     33.38885882	     84.37429817	      5.63685730	    -10.28241758	     20.97442750	     17.34146409	     88.57517088
